# xmcd CD database file
#
# Track frame offsets:
#	150
#	13148
#	31009
#	53158
#	73678
#	89957
#	113495
#	125343
#	139576
#	155772
#	173428
#	185137
#	205425
#	224691
#	244458
#	259064
#	275867
#
# Disc length: 3869 seconds
#
# Revision: 0
# Processed by: cddbd v1.5.2PL0 Copyright (c) Steve Scherf et al.
# Submitted via: CDex 1.70beta2
#
DISCID=0b0f1b11
DTITLE=Fumio Yasuda and Theo Bleckmann - Schumann's
DYEAR=2009
DGENRE=Jazz
TTITLE0=Roast Beef And Fried Potatoes
TTITLE1=As Time Goes By
TTITLE2=I've Got The Word On a String
TTITLE3=In a Sentimental Mood
TTITLE4=Send In The Clowns
TTITLE5=Am I Blue
TTITLE6=Moulin Rouge
TTITLE7=Estrellita
TTITLE8=A Child Is Born
TTITLE9=Someone To Watch Over Me
TTITLE10=Love Me Or Leave Me
TTITLE11=Good Morning Heartache
TTITLE12=Last Night When We Were Young
TTITLE13=So In Love
TTITLE14=You Better Go Now
TTITLE15=God Bless The Child
TTITLE16=Just A Gigolo
EXTD=YEAR: 2009
EXTT0=
EXTT1=
EXTT2=
EXTT3=
EXTT4=
EXTT5=
EXTT6=
EXTT7=
EXTT8=
EXTT9=
EXTT10=
EXTT11=
EXTT12=
EXTT13=
EXTT14=
EXTT15=
EXTT16=
PLAYORDER=
